HIERARCHY
ROOT Hips
{
	OFFSET 53.781399 -8.660535 91.634499
	CHANNELS 6 Xposition Yposition Zposition Xrotation Yrotation Zrotation
	JOINT spine
	{
		OFFSET 0.000000 -0.393701 6.846367
		CHANNELS 3 Xrotation Yrotation Zrotation
		JOINT spine1
		{
			OFFSET 0.000000 -0.000001 9.496208
			CHANNELS 3 Xrotation Yrotation Zrotation
			JOINT spine2
			{
				OFFSET 0.000000 -0.000002 9.099091
				CHANNELS 3 Xrotation Yrotation Zrotation
				JOINT Neck
				{
					OFFSET 0.000000 -1.113784 23.361198
					CHANNELS 3 Xrotation Yrotation Zrotation
					JOINT Head
					{
						OFFSET 0.000000 -0.000001 7.058014
						CHANNELS 3 Xrotation Yrotation Zrotation
						End Site
						{
							OFFSET 0.000000 5.634187 17.084396
						}
					}
				}
				JOINT RightShoulder
				{
					OFFSET -3.831360 0.533489 9.826309
					CHANNELS 3 Xrotation Yrotation Zrotation
					JOINT RightArm
					{
						OFFSET 0.000000 -0.000002 12.888100
						CHANNELS 3 Xrotation Yrotation Zrotation
						JOINT RightArmRoll
						{
							OFFSET 0.000000 -0.000001 6.506165
							CHANNELS 3 Xrotation Yrotation Zrotation
							JOINT RightForeArm
							{
								OFFSET 0.000000 -0.000003 18.950104
								CHANNELS 3 Xrotation Yrotation Zrotation
								JOINT RightForeArmRoll
								{
									OFFSET 0.000000 -0.000001 7.300919
									CHANNELS 3 Xrotation Yrotation Zrotation
									JOINT RightHand
									{
										OFFSET 0.000000 -0.000003 14.651398
										CHANNELS 3 Xrotation Yrotation Zrotation
										End Site
										{
											OFFSET 0.000000 0.000000 0.100006
										}
									}
								}
							}
						}
					}
				}
				JOINT LeftShoulder
				{
					OFFSET 3.831360 0.533489 9.826309
					CHANNELS 3 Xrotation Yrotation Zrotation
					JOINT LeftArm
					{
						OFFSET 0.000000 -0.000002 12.888100
						CHANNELS 3 Xrotation Yrotation Zrotation
						JOINT LeftArmRoll
						{
							OFFSET 0.000000 -0.000001 6.506165
							CHANNELS 3 Xrotation Yrotation Zrotation
							JOINT LeftForeArm
							{
								OFFSET 0.000000 -0.000003 18.950104
								CHANNELS 3 Xrotation Yrotation Zrotation
								JOINT LeftForeArmRoll
								{
									OFFSET 0.000000 -0.000001 7.300919
									CHANNELS 3 Xrotation Yrotation Zrotation
									JOINT LeftHand
									{
										OFFSET 0.000000 -0.000003 14.651398
										CHANNELS 3 Xrotation Yrotation Zrotation
										End Site
										{
											OFFSET 0.000000 0.000000 0.100006
										}
									}
								}
							}
						}
					}
				}
			}
		}
	}
	JOINT RightUpLeg
	{
		OFFSET -6.068371 0.933477 -1.112778
		CHANNELS 3 Xrotation Yrotation Zrotation
		JOINT RightUpLegRoll
		{
			OFFSET 0.000000 -0.000003 17.179604
			CHANNELS 3 Xrotation Yrotation Zrotation
			JOINT RightLeg
			{
				OFFSET 0.000000 0.000003 -21.274300
				CHANNELS 3 Xrotation Yrotation Zrotation
				JOINT RightLegRoll
				{
					OFFSET 0.000000 -0.000003 21.343903
					CHANNELS 3 Xrotation Yrotation Zrotation
					JOINT RightFoot
					{
						OFFSET 0.000000 -0.000003 17.765198
						CHANNELS 3 Xrotation Yrotation Zrotation
						JOINT RightToeBase
						{
							OFFSET 0.000000 -0.000002 14.850807
							CHANNELS 3 Xrotation Yrotation Zrotation
							End Site
							{
								OFFSET 0.006294 0.829003 7.192139
							}
						}
					}
				}
			}
		}
	}
	JOINT LeftUpLeg
	{
		OFFSET 6.068371 0.933477 -1.112778
		CHANNELS 3 Xrotation Yrotation Zrotation
		JOINT LeftUpLegRoll
		{
			OFFSET 0.000000 -0.000003 17.179703
			CHANNELS 3 Xrotation Yrotation Zrotation
			JOINT LeftLeg
			{
				OFFSET 0.000000 -0.000003 21.274193
				CHANNELS 3 Xrotation Yrotation Zrotation
				JOINT LeftLegRoll
				{
					OFFSET 0.000000 -0.000003 21.541199
					CHANNELS 3 Xrotation Yrotation Zrotation
					JOINT LeftFoot
					{
						OFFSET 0.000000 -0.000003 17.567902
						CHANNELS 3 Xrotation Yrotation Zrotation
						JOINT LeftToeBase
						{
							OFFSET 0.000000 -0.000003 14.850800
							CHANNELS 3 Xrotation Yrotation Zrotation
							End Site
							{
								OFFSET -0.028210 0.829003 7.192139
							}
						}
					}
				}
			}
		}
	}
}
MOTION
Frames: 5
Frame Time: 0.041667
53.718704 -6.775088 91.652992 -2.636950 0.045492 -0.893974 -1.663375 -0.144775 -0.116917 0.675763 -0.288237 -0.236742 2.320849 -0.291107 -0.233260 24.729549 4.642363 -0.251731 -5.065237 -3.146609 0.002169 16.610931 -69.668285 17.052740 -14.779522 -102.144441 -2.910065 -0.000000 -0.000000 -0.000004 14.028922 -12.213788 0.564487 0.000003 -0.000008 -2.999990 -5.000180 -7.998694 0.000131 1.248856 68.081782 -0.328644 -33.687610 108.815876 12.545959 -0.000001 0.000000 0.000003 3.379915 12.737832 -0.059152 -0.000002 -0.000004 3.004501 -5.000252 7.998700 -0.000170 -0.620855 -175.492271 1.169792 -179.999991 0.000006 -1.097005 175.498104 -2.067603 -0.208760 0.000003 0.000004 0.037767 68.939872 6.915942 2.061357 25.456960 -7.355615 0.000001 2.783982 175.013858 -0.407008 -0.000005 -0.000005 -1.166560 -4.324410 1.561485 0.173078 -0.000004 0.000001 -0.037379 68.970663 -6.916823 -2.064999 25.456969 7.355616 -0.000001 
53.720905 -6.779298 91.654182 -2.645784 0.051231 -0.899188 -1.661594 -0.145785 -0.116888 0.679322 -0.290189 -0.236898 2.324411 -0.293057 -0.233395 24.731369 4.642759 -0.250101 -5.065074 -3.157299 0.004425 16.653024 -69.663258 17.099710 -14.843760 -102.098426 -3.089044 0.000001 -0.000001 -0.000003 14.051534 -12.298029 0.584123 -0.000000 -0.000008 -2.999990 -5.000177 -7.998693 0.000131 1.294523 68.099240 -0.377529 -33.746517 108.730082 12.675429 -0.000001 -0.000001 0.000000 3.433837 12.817012 -0.067105 -0.000002 -0.000004 3.004500 -5.000252 7.998703 -0.000169 -0.610682 -175.500263 1.165177 -179.999991 0.000005 -1.097005 175.496547 -2.063621 -0.208504 0.000004 0.000004 0.037767 68.939667 6.915967 2.061177 25.456957 -7.355614 -0.000000 2.797542 175.007915 -0.413064 -0.000005 -0.000004 -1.166560 -4.323140 1.561985 0.173078 -0.000003 0.000001 -0.037379 68.970458 -6.916851 -2.065217 25.456969 7.355616 -0.000002 
53.729904 -6.790079 91.654793 -2.654591 0.056961 -0.904454 -1.659775 -0.146757 -0.116867 0.682953 -0.292064 -0.237102 2.328041 -0.294930 -0.233576 24.732371 4.642704 -0.248184 -5.064447 -3.167781 0.006923 16.694294 -69.658599 17.145713 -14.908945 -102.053476 -3.267219 -0.000000 -0.000001 -0.000004 14.071067 -12.381447 0.603439 0.000003 -0.000008 -2.999989 -5.000180 -7.998693 0.000131 1.339909 68.116083 -0.426171 -33.801141 108.645647 12.799684 -0.000002 0.000000 0.000003 3.486767 12.895488 -0.075127 -0.000001 -0.000003 3.004501 -5.000250 7.998702 -0.000170 -0.600389 -175.508240 1.160158 -179.999991 0.000005 -1.097005 175.494621 -2.058618 -0.208179 0.000004 0.000003 0.037767 68.939346 6.915948 2.061092 25.456957 -7.355616 -0.000000 2.811132 175.001003 -0.419127 -0.000005 -0.000004 -1.166560 -4.321812 1.562457 0.173078 -0.000004 0.000001 -0.037379 68.970349 -6.916843 -2.065522 25.456965 7.355615 -0.000001 
53.726402 -6.791818 91.658089 -2.663381 0.062686 -0.909758 -1.657935 -0.147705 -0.116854 0.686636 -0.293887 -0.237336 2.331721 -0.296752 -0.233790 24.732960 4.642327 -0.246079 -5.063531 -3.178134 0.009591 16.735020 -69.654208 17.191048 -14.974577 -102.009579 -3.444476 -0.000000 -0.000000 -0.000003 14.088566 -12.464285 0.622550 0.000001 -0.000008 -2.999990 -5.000182 -7.998694 0.000131 1.385127 68.132612 -0.474673 -33.851944 108.562681 12.919334 -0.000001 0.000000 0.000002 3.539008 12.973458 -0.083246 -0.000000 -0.000004 3.004501 -5.000248 7.998701 -0.000169 -0.590010 -175.516245 1.154863 -179.999991 0.000005 -1.097005 175.492449 -2.053627 -0.208862 0.000004 0.000004 0.037766 68.938930 6.915958 2.060919 25.456962 -7.355614 0.000000 2.824744 174.994064 -0.425161 -0.000005 -0.000004 -1.166560 -4.320461 1.562909 0.173078 -0.000003 0.000001 -0.037379 68.970239 -6.916837 -2.065728 25.456971 7.355615 -0.000001 
53.724003 -6.787237 91.657890 -2.672173 0.068407 -0.915083 -1.656073 -0.148637 -0.116845 0.690346 -0.295680 -0.237589 2.335432 -0.298543 -0.234021 24.733239 4.641771 -0.243862 -5.062418 -3.188401 0.012358 16.775419 -69.649932 17.235996 -15.041241 -101.965722 -3.622063 -0.000000 -0.000001 -0.000003 14.104851 -12.546687 0.641519 0.000003 -0.000008 -2.999990 -5.000180 -7.998693 0.000131 1.430271 68.148930 -0.523117 -33.902453 108.479564 13.038405 -0.000000 0.000000 0.000002 3.590875 13.051209 -0.091482 -0.000003 -0.000004 3.004500 -5.000251 7.998701 -0.000170 -0.579579 -175.524237 1.149389 -179.999991 0.000005 -1.098003 175.490154 -2.047644 -0.208474 0.000003 0.000004 0.037766 68.938506 6.915972 2.060751 25.456959 -7.355616 0.000001 2.838362 174.988121 -0.431129 -0.000005 -0.000004 -1.166560 -4.319083 1.563360 0.173078 -0.000004 0.000001 -0.037379 68.970130 -6.916832 -2.065934 25.456964 7.355617 0.000000 
